<svg width="16" height="16" viewBox="0 0 16 16" fill="none" xmlns="http://www.w3.org/2000/svg">
<mask id="mask0_10735_332" style="mask-type:luminance" maskUnits="userSpaceOnUse" x="0" y="0" width="16" height="16">
<path d="M15.6811 6.54545H8.22656V9.63636H12.5175C12.1175 11.6 10.4447 12.7273 8.22656 12.7273C5.60838 12.7273 3.49929 10.6182 3.49929 8C3.49929 5.38182 5.60838 3.27273 8.22656 3.27273C9.35384 3.27273 10.372 3.67274 11.172 4.32728L13.4993 2C12.0811 0.763636 10.2629 0 8.22656 0C3.7902 0 0.226562 3.56364 0.226562 8C0.226562 12.4364 3.7902 16 8.22656 16C12.2266 16 15.8629 13.0909 15.8629 8C15.8629 7.52727 15.7902 7.01818 15.6811 6.54545Z" fill="white"/>
</mask>
<g mask="url(#mask0_10735_332)">
<path d="M-0.500488 12.7294V3.2749L5.68133 8.00217L-0.500488 12.7294Z" fill="#FBBC05"/>
</g>
<mask id="mask1_10735_332" style="mask-type:luminance" maskUnits="userSpaceOnUse" x="0" y="0" width="16" height="16">
<path d="M15.6811 6.54545H8.22656V9.63636H12.5175C12.1175 11.6 10.4447 12.7273 8.22656 12.7273C5.60838 12.7273 3.49929 10.6182 3.49929 8C3.49929 5.38182 5.60838 3.27273 8.22656 3.27273C9.35384 3.27273 10.372 3.67274 11.172 4.32728L13.4993 2C12.0811 0.763636 10.2629 0 8.22656 0C3.7902 0 0.226562 3.56364 0.226562 8C0.226562 12.4364 3.7902 16 8.22656 16C12.2266 16 15.8629 13.0909 15.8629 8C15.8629 7.52727 15.7902 7.01818 15.6811 6.54545Z" fill="white"/>
</mask>
<g mask="url(#mask1_10735_332)">
<path d="M-0.500488 3.27051L5.68133 7.99778L8.22678 5.77961L16.9541 4.36142V-0.729492H-0.500488V3.27051Z" fill="#EA4335"/>
</g>
<mask id="mask2_10735_332" style="mask-type:luminance" maskUnits="userSpaceOnUse" x="0" y="0" width="16" height="16">
<path d="M15.6811 6.54545H8.22656V9.63636H12.5175C12.1175 11.6 10.4447 12.7273 8.22656 12.7273C5.60838 12.7273 3.49929 10.6182 3.49929 8C3.49929 5.38182 5.60838 3.27273 8.22656 3.27273C9.35384 3.27273 10.372 3.67274 11.172 4.32728L13.4993 2C12.0811 0.763636 10.2629 0 8.22656 0C3.7902 0 0.226562 3.56364 0.226562 8C0.226562 12.4364 3.7902 16 8.22656 16C12.2266 16 15.8629 13.0909 15.8629 8C15.8629 7.52727 15.7902 7.01818 15.6811 6.54545Z" fill="white"/>
</mask>
<g mask="url(#mask2_10735_332)">
<path d="M-0.500488 12.7251L10.4086 4.36142L13.2813 4.72505L16.9541 -0.729492V16.7251H-0.500488V12.7251Z" fill="#34A853"/>
</g>
<mask id="mask3_10735_332" style="mask-type:luminance" maskUnits="userSpaceOnUse" x="0" y="0" width="16" height="16">
<path d="M15.6811 6.54545H8.22656V9.63636H12.5175C12.1175 11.6 10.4447 12.7273 8.22656 12.7273C5.60838 12.7273 3.49929 10.6182 3.49929 8C3.49929 5.38182 5.60838 3.27273 8.22656 3.27273C9.35384 3.27273 10.372 3.67274 11.172 4.32728L13.4993 2C12.0811 0.763636 10.2629 0 8.22656 0C3.7902 0 0.226562 3.56364 0.226562 8C0.226562 12.4364 3.7902 16 8.22656 16C12.2266 16 15.8629 13.0909 15.8629 8C15.8629 7.52727 15.7902 7.01818 15.6811 6.54545Z" fill="white"/>
</mask>
<g mask="url(#mask3_10735_332)">
<path d="M16.9558 16.7294L5.68306 8.00218L4.22852 6.91127L16.9558 3.2749V16.7294Z" fill="#4285F4"/>
</g>
</svg>
